<svg width="199" height="183" viewBox="0 0 199 183" fill="none" xmlns="http://www.w3.org/2000/svg">
<path d="M136.686 75.7213C122.976 66.4808 105.702 64.8428 90.4787 71.342C75.255 77.8412 64.5408 91.4275 61.8186 107.683L55.2552 146.854C54.1662 153.352 55.1878 159.887 58.2061 165.749C61.2255 171.612 65.9605 176.25 71.9001 179.168C77.8403 182.08 84.4251 182.992 90.9428 181.807C97.46 180.623 103.297 177.449 107.822 172.631L108.125 172.307C119.564 160.307 135.618 153.519 152.247 153.665C156.537 153.703 160.705 152.868 164.563 151.221C166.661 150.325 168.67 149.187 170.557 147.821C175.912 143.938 179.787 138.561 181.762 132.268C183.736 125.977 183.625 119.363 181.439 113.143C179.254 106.922 175.201 101.682 169.719 97.9858L136.686 75.7213ZM47.3353 113.818C52.2558 109.054 54.6965 102.423 54.2072 95.1469C53.7424 88.2228 50.6416 81.5052 45.4743 76.2313C40.3078 70.962 33.6376 67.7071 26.691 67.0654C19.3945 66.3926 12.6686 68.6474 7.75929 73.412C-2.12153 82.9861 -1.28591 99.8435 9.62687 110.997C18.3277 119.867 30.8302 122.474 40.5468 118.326C43.0694 117.252 45.371 115.724 47.3353 113.818ZM75.382 73.3516C90.1713 67.0378 96.3291 48.2674 89.1087 31.5096C81.8864 14.7475 63.9787 6.24798 49.1894 12.5617C34.4015 18.8749 28.2462 37.6471 35.4685 54.4093C42.6889 71.1671 60.5937 79.6649 75.382 73.3516ZM124.92 61.0432L124.922 61.0426C127.466 60.8279 129.96 60.2069 132.307 59.2034C143.092 54.599 150.239 42.3045 149.08 28.5934C148.414 20.7007 145.115 13.4625 139.792 8.2138C134.222 2.71813 127.128 0.0312624 119.816 0.648038C112.503 1.26522 105.961 5.10292 101.393 11.453C97.0277 17.5187 94.9927 25.2068 95.6618 33.0982C97.0707 49.7474 110.196 62.2832 124.92 61.0432ZM179.875 33.3827L179.869 33.3803C166.442 30.2414 152.588 40.0008 148.986 55.1407C145.395 70.2824 153.389 85.1646 166.803 88.3158C171.696 89.4667 176.648 88.9008 181.14 86.9835C188.968 83.6416 195.399 76.1913 197.695 66.5601C201.285 51.4185 193.293 36.536 179.875 33.3827Z" fill="#E47537"/>
</svg>
